<svg xmlns="http://www.w3.org/2000/svg" width="600" height="600" viewBox="0 0 600 600" role="img" aria-labelledby="title desc">
<title id="title">quanta</title><desc id="desc">Linguista Library 原创矢量封面</desc>
<style>text{font-family:Arial,'PingFang SC',sans-serif}.serif{font-family:Georgia,'Songti SC','STSong',serif}.mono{font-family:monospace}</style>
<rect width="600" height="600" fill="#263d53"/>
<text x="35" y="49" font-size="14" fill="#d3e3e4" letter-spacing="2">MATHEMATICS / SCIENCE / DISCOVERY</text>
<text x="31" y="145" font-size="94" class="serif" fill="#f4f0df">Quanta</text><text x="37" y="186" font-size="14" fill="#d3e3e4" letter-spacing="2">MAGAZINE</text>
<g stroke="#8bafb9" stroke-width="1.5" fill="none"><ellipse cx="390" cy="360" rx="143" ry="49" transform="rotate(0 390 360)"/><ellipse cx="390" cy="360" rx="143" ry="49" transform="rotate(22.5 390 360)"/><ellipse cx="390" cy="360" rx="143" ry="49" transform="rotate(45 390 360)"/><ellipse cx="390" cy="360" rx="143" ry="49" transform="rotate(67.5 390 360)"/><ellipse cx="390" cy="360" rx="143" ry="49" transform="rotate(90 390 360)"/><ellipse cx="390" cy="360" rx="143" ry="49" transform="rotate(112.5 390 360)"/><ellipse cx="390" cy="360" rx="143" ry="49" transform="rotate(135 390 360)"/><ellipse cx="390" cy="360" rx="143" ry="49" transform="rotate(157.5 390 360)"/></g><circle cx="390" cy="360" r="14" fill="#d4af6c"/>
<path d="M35 510H190" stroke="#8bafb9"/><text x="35" y="570" font-size="14" fill="#d3e3e4" letter-spacing="2">LINGUISTA / CHANNEL 02</text>
</svg>
